<svg id="Cronometer_Icon_-_Mandarin" data-name="Cronometer Icon - Mandarin" xmlns="http://www.w3.org/2000/svg" width="488" height="469.891" viewBox="0 0 488 469.891">
  <path id="Path_10749" data-name="Path 10749" d="M2678.186,1388.633a13.5,13.5,0,0,0-15.466,11.15c-.656,4.018-1.412,8.129-2.256,12.213-8.035,38.837-24.317,78.74-44.683,109.485-22.764,34.386-49.239,54.916-70.807,54.916-14.79,0-21.615-2.03-30.377-4.638-9.583-2.847-20.452-6.075-39.613-6.075-19.2,0-30.063,3.237-39.717,6.118-8.645,2.57-15.469,4.6-30.25,4.6-21.558,0-48.024-20.516-70.793-54.879-20.362-30.74-36.653-70.647-44.693-109.489-8.974-43.376-7.3-81.573,4.85-110.443,17.66-41.919,59.4-63.853,91.511-63.853,19.795,0,31.024,4.346,42.953,8.961l.745.291c11.807,4.572,25.19,9.76,45.135,9.76l.582-.005c19.921,0,33.333-5.206,45.162-9.792l.68-.263c11.882-4.6,23.107-8.961,42.944-8.961a85.672,85.672,0,0,1,24.87,4.008,105.251,105.251,0,0,1,13.542,5.258,13.492,13.492,0,0,0,11.431-24.444,131.141,131.141,0,0,0-17.022-6.607,111.21,111.21,0,0,0-32.821-5.206c-24.871,0-39.641,5.723-52.673,10.775l-.685.268c-7.284,2.824-13.94,5.371-21.911,6.79a121.82,121.82,0,0,0-4.864-22.419l-.013-.028c51.93-9.459,50.092-72.612,50.092-72.612-42.272,6.414-60.5,22.588-67.908,38.141l-.019-.024a98.558,98.558,0,0,0-25.42-23.339,15.874,15.874,0,0,0-12.13-2.19,16.11,16.11,0,0,0-5.118,29.364c16.967,10.709,28.783,29.749,32.723,52.059a141.834,141.834,0,0,1-16.858-5.709l-.8-.31c-13.036-5.042-27.8-10.76-52.621-10.76-40.992,0-94.119,27.6-116.34,80.356-18.04,42.882-13.443,92.418-6.407,126.42,8.71,42.083,26.432,85.43,48.624,118.933,28.608,43.174,61.72,66.951,93.247,66.951,18.688,0,28.459-2.9,38.019-5.747,8.575-2.556,16.67-4.971,31.949-4.971,15.249,0,23.359,2.411,32.065,5,9.448,2.81,19.214,5.723,37.926,5.723,31.081,0,65.074-24.421,93.265-66.992,22.187-33.5,39.909-76.851,48.61-118.934.924-4.459,1.75-8.952,2.472-13.345a13.5,13.5,0,0,0-11.136-15.492" transform="translate(-2256.933 -1133.505)" fill="#2563eb"/>
  <path id="Path_10750" data-name="Path 10750" d="M2674.945,1243.737v.052l-37.512-26.746-1.937-1.062.224-2.359,1.079-46.11.043.033a13.726,13.726,0,0,0-20.108-12.307L2577,1175.171a40.01,40.01,0,0,0-20.686,31.285l-3.363,35.636-28.613,15.389a136.285,136.285,0,1,0-113.723,211.531c75.132,0,136.248-61.226,136.248-136.479a135.98,135.98,0,0,0-9.95-51.124l28.239-15.154-.047.136,30.5,18.646a39.857,39.857,0,0,0,37.4,2.142l39.73-19.937a13.765,13.765,0,0,0,2.209-23.5m-155.033,88.8c0,60.366-49.027,109.484-109.3,109.484a109.485,109.485,0,1,1,89.865-171.708l-37.047,19.923a67.773,67.773,0,1,0,12.322,24l37.25-19.989a109.06,109.06,0,0,1,6.909,38.292m-118.375,5.826a13.443,13.443,0,0,0,18.05,6.014L2451,1327.518a40.571,40.571,0,0,1-40.383,45.8,40.786,40.786,0,1,1,28.408-69.957l-31.48,16.925a13.486,13.486,0,0,0-6,18.073m180.523-123.854c.989-5.286,1.763-9.925,6.6-12.551l20.471-10.272-2.753,25.252-25.889,12.988Zm36.527,47.276c-5.01,2.312-9.175.15-14-2.223l-13.255-7.965,25.882-12.992,21.84,12.908Z" transform="translate(-2192.558 -1058.975)" fill="#2563eb"/>
  <!-- Diagonal 'zeta' placed inside the line, darker blue, lowered into the arrow -->
  <text x="244" y="255" text-anchor="middle" dominant-baseline="middle" fill="#0b2f6b" font-family="Arial, Helvetica, sans-serif" font-weight="700" font-size="16" opacity="1" transform="rotate(-30 244 255)">zeta</text>
</svg>
